<svg width="80" height="80" viewBox="0 0 80 80" fill="none" xmlns="http://www.w3.org/2000/svg">
<rect width="80" height="80" rx="40" fill="#E9651B"/>
<rect x="10" y="10" width="60" height="60" rx="30" fill="#F27834"/>
<g clip-path="url(#clip0_71_25)">
<path d="M50.615 34.9614L38.6925 26.2189C37.7613 25.537 36.6594 25.1263 35.5091 25.0322C34.3587 24.9382 33.2048 25.1646 32.1752 25.6862C31.1457 26.2079 30.2806 27.0045 29.6761 27.9876C29.0715 28.9708 28.751 30.1022 28.75 31.2564V48.7501C28.7482 49.9054 29.0671 51.0386 29.6711 52.0234C30.2751 53.0083 31.1405 53.8062 32.1711 54.3284C33.2017 54.8505 34.357 55.0764 35.5083 54.981C36.6597 54.8855 37.762 54.4724 38.6925 53.7876L50.615 45.0451C51.4061 44.4646 52.0494 43.7059 52.4928 42.8305C52.9362 41.9551 53.1672 40.9876 53.1672 40.0064C53.1672 39.0251 52.9362 38.0576 52.4928 37.1822C52.0494 36.3069 51.4061 35.5482 50.615 34.9676V34.9614Z" fill="white"/>
</g>
<defs>
<clipPath id="clip0_71_25">
<rect width="30" height="30" fill="white" transform="translate(25 25)"/>
</clipPath>
</defs>
</svg>
