<svg version="1.2" xmlns="http://www.w3.org/2000/svg" viewBox="0 0 50 50" width="50" height="50">
	<title>slick-active-next-green-svg</title>
	<defs>
		<clipPath clipPathUnits="userSpaceOnUse" id="cp1">
			<path d="m0 0h50v50h-50z"/>
		</clipPath>
	</defs>
	<style>
		.s0 { fill: #225915 } 
	</style>
	<g id="Clip-Path" clip-path="url(#cp1)">
		<g id="Layer">
			<path id="Layer" fill-rule="evenodd" class="s0" d="m42.7 42.7c-4.7 4.7-11.1 7.3-17.7 7.3-4.9 0-9.8-1.5-13.9-4.2-4.1-2.8-7.3-6.7-9.2-11.2-1.9-4.6-2.4-9.6-1.4-14.5 0.9-4.8 3.3-9.3 6.8-12.8 3.5-3.5 8-5.9 12.8-6.8 4.9-1 9.9-0.5 14.5 1.4 4.5 1.9 8.4 5.1 11.2 9.2 2.7 4.1 4.2 9 4.2 13.9 0 6.6-2.6 13-7.3 17.7zm-24.5-13.6c0.6 0.7 1.2 1.4 1.6 1.8l5.9 6c0.4 0.3 0.9 0.5 1.5 0.5 0.5 0 1-0.2 1.4-0.6 0.4-0.3 0.6-0.8 0.6-1.4 0.1-0.5-0.1-1-0.5-1.4l-5.9-6.1c-0.4-0.3-0.9-0.9-1.4-1.5-0.4-0.4-0.6-0.9-0.6-1.4 0-0.5 0.2-1 0.6-1.4 0.5-0.6 1-1.2 1.4-1.6l5.9-6c0.4-0.4 0.6-0.9 0.5-1.4 0-0.6-0.2-1.1-0.6-1.4-0.4-0.4-0.9-0.6-1.4-0.6-0.6 0-1.1 0.2-1.5 0.5l-5.8 6c-0.5 0.4-1.1 1.1-1.7 1.8-1 1.1-1.5 2.6-1.5 4.1 0 1.5 0.5 3 1.5 4.1z"/>
		</g>
	</g>
</svg>