<svg width="50" height="50" viewBox="0 0 50 50" fill="none" xmlns="http://www.w3.org/2000/svg">
<g clip-path="url(#clip0_13_45)">
<path d="M-1.14441e-05 25C-1.14441e-05 20.0555 1.46622 15.222 4.21325 11.1108C6.96029 6.99953 10.8647 3.79521 15.4329 1.90302C20.0011 0.0108322 25.0277 -0.484251 29.8772 0.480379C34.7268 1.44501 39.1813 3.82603 42.6777 7.32234C46.174 10.8187 48.555 15.2732 49.5196 20.1228C50.4843 24.9723 49.9892 29.9989 48.097 34.5671C46.2048 39.1353 43.0005 43.0397 38.8892 45.7867C34.778 48.5338 29.9445 50 25 50C18.3718 49.9928 12.0171 47.3566 7.33024 42.6698C2.64338 37.9829 0.00716019 31.6282 -1.14441e-05 25ZM33.3333 25C33.3349 23.475 32.7775 22.0023 31.7667 20.8604C31.1604 20.1792 30.5708 19.5333 30.1479 19.1104L24.2646 13.125C23.8725 12.7567 23.3531 12.5543 22.8152 12.5602C22.2773 12.5661 21.7625 12.7799 21.3786 13.1568C20.9947 13.5336 20.7715 14.0444 20.7557 14.5821C20.7399 15.1199 20.9327 15.6429 21.2937 16.0417L27.1875 22.0417C27.5771 22.4333 28.1062 23.0167 28.6458 23.6229C28.9815 24.0035 29.1668 24.4936 29.1668 25.0011C29.1668 25.5085 28.9815 25.9986 28.6458 26.3792C28.1083 26.9833 27.5792 27.5667 27.2021 27.9458L21.2937 33.9583C20.9327 34.3571 20.7399 34.8801 20.7557 35.4179C20.7715 35.9556 20.9947 36.4664 21.3786 36.8433C21.7625 37.2201 22.2773 37.4339 22.8152 37.4398C23.3531 37.4458 23.8725 37.2434 24.2646 36.875L30.1583 30.8792C30.575 30.4625 31.1583 29.8229 31.7604 29.1438C32.775 28.0021 33.3348 26.5274 33.3333 25Z" fill="#225915"/>
</g>
<defs>
<clipPath id="clip0_13_45">
<rect width="50" height="50" fill="white" transform="matrix(-1 0 0 1 50 0)"/>
</clipPath>
</defs>
</svg>
